<?xml version="1.0" encoding="utf-8"?>
<!-- Generator: Adobe Illustrator 16.0.0, SVG Export Plug-In . SVG Version: 6.00 Build 0)  -->
<!DOCTYPE svg PUBLIC "-//W3C//DTD SVG 1.1//EN" "http://www.w3.org/Graphics/SVG/1.1/DTD/svg11.dtd">
<svg version="1.1" id="Layer_1" xmlns="http://www.w3.org/2000/svg" xmlns:xlink="http://www.w3.org/1999/xlink" x="0px" y="0px"
	 width="32px" height="32px" viewBox="0 0 32 32" enable-background="new 0 0 32 32" xml:space="preserve">
<g>
	<defs>
		<text id="SVGID_1_" transform="matrix(1 0 0 1 0.4951 21.2568)" font-family="'SuperBubble'" font-size="12.826">Yum Yum</text>
	</defs>
	<clipPath id="SVGID_2_">
		<use xlink:href="#SVGID_1_"  overflow="visible"/>
	</clipPath>
	<g clip-path="url(#SVGID_2_)">
		<path fill="#FFC7C7" d="M8.155,12.559c-0.118-0.204-0.275-0.375-0.467-0.512c-0.194-0.138-0.403-0.242-0.629-0.315
			c-0.228-0.072-0.452-0.109-0.674-0.109c-0.239,0-0.447,0.064-0.622,0.192c-0.175,0.129-0.325,0.291-0.448,0.487
			C5.191,12.5,5.085,12.709,5,12.931c-0.083,0.221-0.161,0.432-0.23,0.628c-0.068,0.197-0.129,0.36-0.187,0.487
			c-0.054,0.128-0.116,0.192-0.185,0.192c-0.068,0-0.131-0.067-0.186-0.204c-0.056-0.136-0.117-0.309-0.18-0.52
			c-0.064-0.21-0.141-0.436-0.232-0.679c-0.09-0.243-0.199-0.471-0.326-0.679c-0.13-0.211-0.28-0.384-0.457-0.52
			c-0.175-0.137-0.386-0.207-0.635-0.207c-0.187,0-0.391,0.045-0.608,0.135c-0.219,0.092-0.417,0.218-0.596,0.38
			c-0.18,0.162-0.329,0.348-0.45,0.559C0.61,12.71,0.55,12.94,0.55,13.188c0,0.256,0.07,0.529,0.213,0.821
			c0.139,0.29,0.314,0.583,0.525,0.878c0.21,0.295,0.436,0.59,0.679,0.885c0.244,0.294,0.47,0.575,0.68,0.839
			c0.209,0.265,0.386,0.509,0.527,0.727c0.14,0.218,0.21,0.404,0.21,0.557c0,0.221-0.036,0.425-0.11,0.603
			c-0.071,0.18-0.15,0.351-0.229,0.514c-0.081,0.162-0.16,0.327-0.232,0.494c-0.072,0.166-0.109,0.353-0.109,0.558
			c0,0.309,0.083,0.564,0.243,0.771c0.164,0.203,0.364,0.37,0.604,0.5c0.24,0.127,0.497,0.219,0.769,0.276
			c0.275,0.054,0.519,0.081,0.733,0.081c0.238,0,0.482-0.034,0.729-0.101c0.249-0.069,0.475-0.172,0.681-0.309
			c0.205-0.139,0.374-0.309,0.507-0.514c0.132-0.203,0.198-0.443,0.198-0.718c0-0.29-0.059-0.528-0.174-0.712
			c-0.115-0.185-0.243-0.361-0.385-0.533c-0.139-0.17-0.268-0.352-0.383-0.544c-0.116-0.193-0.173-0.438-0.173-0.738
			c0-0.128,0.054-0.285,0.165-0.475c0.112-0.188,0.253-0.396,0.425-0.622s0.354-0.468,0.551-0.726
			c0.197-0.255,0.381-0.52,0.551-0.794c0.171-0.274,0.313-0.547,0.424-0.821c0.112-0.272,0.167-0.543,0.167-0.808
			C8.336,13.005,8.275,12.766,8.155,12.559z"/>
		<path fill="#FFC7C7" d="M18.551,14.013c-0.003-0.053-0.006-0.105-0.012-0.158c-0.04-0.418-0.134-0.794-0.289-1.124
			c-0.153-0.329-0.386-0.593-0.693-0.794c-0.306-0.203-0.731-0.302-1.269-0.302c-0.231,0-0.481,0.025-0.751,0.076
			c-0.127,0.025-0.25,0.059-0.367,0.099c-0.132,0.047-0.259,0.104-0.377,0.171c-0.225,0.128-0.417,0.304-0.571,0.526
			s-0.232,0.504-0.232,0.846c0,0.24,0.038,0.487,0.109,0.744c0.072,0.257,0.152,0.52,0.237,0.789
			c0.087,0.269,0.166,0.539,0.239,0.808c0.071,0.27,0.108,0.54,0.108,0.814c0,0.205-0.025,0.409-0.078,0.616
			c-0.051,0.204-0.125,0.389-0.225,0.551c-0.097,0.163-0.218,0.296-0.357,0.396c-0.143,0.103-0.307,0.155-0.495,0.155
			c-0.164,0-0.288-0.038-0.377-0.115c-0.092-0.077-0.154-0.174-0.192-0.289c-0.04-0.114-0.064-0.239-0.072-0.371
			c-0.009-0.133-0.013-0.256-0.013-0.367c0-0.342,0.04-0.677,0.115-1.006c0.077-0.328,0.162-0.656,0.251-0.98
			c0.089-0.326,0.171-0.65,0.243-0.976c0.073-0.325,0.11-0.654,0.11-0.987c0-0.056-0.003-0.113-0.004-0.167
			c-0.016-0.323-0.075-0.607-0.175-0.853c-0.121-0.286-0.291-0.521-0.508-0.706c-0.219-0.183-0.479-0.318-0.781-0.404
			c-0.303-0.085-0.641-0.128-1.008-0.128c-0.497,0-0.902,0.072-1.217,0.216c-0.054,0.023-0.107,0.051-0.155,0.08
			c-0.333,0.197-0.586,0.454-0.758,0.774c-0.169,0.321-0.278,0.687-0.325,1.099c-0.049,0.409-0.073,0.833-0.073,1.269
			c0,0.418,0.012,0.826,0.033,1.219c0.021,0.394,0.05,0.764,0.085,1.109c0.033,0.347,0.07,0.658,0.114,0.937
			c0.042,0.277,0.084,0.513,0.128,0.712c0.154,0.709,0.379,1.287,0.679,1.731c0.3,0.443,0.646,0.789,1.039,1.031
			c0.394,0.243,0.819,0.408,1.276,0.495c0.458,0.084,0.913,0.128,1.367,0.128c0.557,0,1.091-0.057,1.604-0.168
			c0.511-0.109,0.984-0.295,1.417-0.556c0.431-0.262,0.81-0.609,1.135-1.046c0.325-0.436,0.572-0.979,0.743-1.629
			c0.104-0.386,0.194-0.861,0.27-1.431c0.077-0.569,0.115-1.143,0.115-1.726C18.596,14.749,18.581,14.379,18.551,14.013z"/>
		<path fill="#FFC7C7" d="M31.84,17.651c-0.039-0.497-0.105-1.021-0.201-1.571c-0.093-0.551-0.22-1.105-0.376-1.66
			c-0.159-0.557-0.358-1.055-0.597-1.495c-0.239-0.44-0.529-0.801-0.867-1.077c-0.338-0.278-0.729-0.419-1.173-0.419
			c-0.368,0-0.678,0.075-0.932,0.218c-0.249,0.146-0.463,0.326-0.634,0.54c-0.172,0.214-0.309,0.449-0.416,0.707
			c-0.107,0.255-0.201,0.49-0.282,0.705s-0.157,0.393-0.224,0.539c-0.069,0.145-0.155,0.218-0.257,0.218
			c-0.104,0-0.177-0.074-0.225-0.218c-0.048-0.146-0.098-0.329-0.147-0.553c-0.051-0.221-0.118-0.459-0.199-0.71
			c-0.082-0.253-0.207-0.49-0.372-0.712c-0.167-0.222-0.385-0.407-0.653-0.551c-0.271-0.146-0.618-0.218-1.046-0.218
			c-0.249,0-0.483,0.029-0.707,0.089c-0.222,0.06-0.432,0.161-0.628,0.308c-0.333,0.229-0.623,0.512-0.872,0.846
			c-0.247,0.333-0.464,0.7-0.646,1.096c-0.184,0.397-0.343,0.818-0.476,1.257c-0.132,0.44-0.242,0.884-0.332,1.334
			c-0.092,0.449-0.17,0.889-0.238,1.321c-0.067,0.432-0.134,0.838-0.192,1.225c-0.034,0.222-0.071,0.455-0.113,0.699
			c-0.044,0.242-0.065,0.476-0.065,0.697c0,0.24,0.079,0.44,0.243,0.604c0.161,0.162,0.358,0.292,0.591,0.391
			c0.231,0.098,0.473,0.168,0.724,0.214c0.253,0.038,0.473,0.062,0.66,0.062c0.128,0,0.262-0.008,0.398-0.026
			c0.136-0.018,0.266-0.047,0.384-0.088c0.12-0.044,0.231-0.104,0.334-0.18c0.102-0.08,0.192-0.176,0.269-0.296
			c0.086-0.145,0.154-0.359,0.205-0.642c0.054-0.281,0.097-0.592,0.136-0.936c0.038-0.344,0.071-0.693,0.096-1.051
			c0.025-0.36,0.059-0.686,0.098-0.977c0.036-0.289,0.084-0.528,0.141-0.718c0.056-0.188,0.13-0.281,0.224-0.281
			c0.095,0,0.171,0.08,0.231,0.236c0.061,0.158,0.118,0.357,0.179,0.597c0.061,0.238,0.126,0.495,0.199,0.771
			c0.073,0.271,0.171,0.527,0.296,0.768c0.121,0.24,0.278,0.438,0.461,0.595c0.182,0.161,0.416,0.238,0.699,0.238
			c0.222,0,0.409-0.072,0.563-0.217c0.153-0.145,0.291-0.326,0.412-0.541c0.117-0.211,0.223-0.444,0.313-0.697
			c0.089-0.252,0.175-0.486,0.256-0.699c0.082-0.214,0.167-0.394,0.257-0.539c0.089-0.145,0.192-0.219,0.303-0.219
			s0.185,0.119,0.224,0.354c0.038,0.233,0.065,0.525,0.083,0.872c0.019,0.346,0.039,0.724,0.064,1.135
			c0.024,0.41,0.084,0.789,0.173,1.135c0.091,0.347,0.228,0.636,0.418,0.872c0.187,0.236,0.449,0.353,0.781,0.353
			c0.581,0,1.038-0.022,1.372-0.069s0.584-0.154,0.749-0.321c0.169-0.166,0.275-0.414,0.322-0.744
			c0.047-0.329,0.07-0.776,0.07-1.341C31.896,18.557,31.877,18.147,31.84,17.651z"/>
		<path fill="#FFC7C7" d="M45.043,12.559c-0.121-0.204-0.276-0.375-0.468-0.512c-0.191-0.138-0.401-0.242-0.629-0.315
			c-0.227-0.072-0.45-0.109-0.675-0.109c-0.236,0-0.445,0.064-0.621,0.192c-0.175,0.129-0.324,0.291-0.45,0.487
			c-0.121,0.198-0.226,0.407-0.312,0.629c-0.086,0.221-0.165,0.432-0.232,0.628c-0.068,0.197-0.13,0.36-0.185,0.487
			c-0.057,0.128-0.119,0.192-0.187,0.192c-0.068,0-0.131-0.067-0.186-0.204c-0.057-0.136-0.116-0.309-0.182-0.52
			c-0.063-0.21-0.14-0.436-0.229-0.679c-0.09-0.243-0.199-0.471-0.327-0.679c-0.128-0.211-0.281-0.384-0.456-0.52
			c-0.176-0.137-0.388-0.207-0.634-0.207c-0.189,0-0.392,0.045-0.611,0.135c-0.217,0.092-0.415,0.218-0.597,0.38
			c-0.179,0.162-0.329,0.348-0.447,0.559c-0.121,0.208-0.179,0.438-0.179,0.686c0,0.256,0.069,0.529,0.21,0.821
			c0.143,0.29,0.317,0.583,0.525,0.878c0.21,0.295,0.437,0.59,0.682,0.885c0.243,0.294,0.468,0.575,0.679,0.839
			c0.209,0.265,0.387,0.509,0.526,0.727s0.213,0.404,0.213,0.557c0,0.221-0.038,0.425-0.111,0.603
			c-0.073,0.18-0.148,0.351-0.231,0.514c-0.081,0.162-0.157,0.327-0.231,0.494c-0.07,0.166-0.108,0.353-0.108,0.558
			c0,0.309,0.082,0.564,0.246,0.771c0.161,0.203,0.361,0.37,0.601,0.5c0.239,0.127,0.496,0.219,0.771,0.276
			c0.273,0.054,0.516,0.081,0.73,0.081c0.24,0,0.482-0.034,0.731-0.101c0.247-0.069,0.475-0.172,0.681-0.309
			c0.206-0.139,0.373-0.309,0.506-0.514c0.131-0.203,0.197-0.443,0.197-0.718c0-0.29-0.055-0.528-0.173-0.712
			c-0.114-0.185-0.243-0.361-0.383-0.533c-0.142-0.17-0.27-0.352-0.386-0.544c-0.114-0.193-0.172-0.438-0.172-0.738
			c0-0.128,0.056-0.285,0.165-0.475c0.112-0.188,0.252-0.396,0.424-0.622c0.171-0.227,0.354-0.468,0.553-0.726
			c0.195-0.255,0.38-0.52,0.551-0.794c0.172-0.274,0.312-0.547,0.422-0.821c0.112-0.272,0.168-0.543,0.168-0.808
			C45.223,13.005,45.162,12.766,45.043,12.559z"/>
		<path fill="#FFC7C7" d="M55.424,13.855c-0.035-0.418-0.134-0.794-0.288-1.124c-0.152-0.329-0.384-0.593-0.692-0.794
			c-0.307-0.203-0.73-0.302-1.27-0.302c-0.231,0-0.479,0.025-0.748,0.076c-0.271,0.053-0.519,0.143-0.746,0.271
			c-0.226,0.128-0.417,0.304-0.571,0.526c-0.153,0.222-0.229,0.504-0.229,0.846c0,0.24,0.034,0.487,0.108,0.744
			c0.072,0.257,0.152,0.52,0.237,0.789c0.083,0.269,0.164,0.539,0.236,0.808c0.074,0.27,0.107,0.54,0.107,0.814
			c0,0.205-0.024,0.409-0.074,0.616c-0.054,0.204-0.128,0.389-0.225,0.551c-0.099,0.163-0.22,0.296-0.36,0.396
			c-0.14,0.103-0.305,0.155-0.494,0.155c-0.162,0-0.288-0.038-0.378-0.115s-0.152-0.174-0.192-0.289
			c-0.039-0.114-0.062-0.239-0.069-0.371c-0.009-0.133-0.015-0.256-0.015-0.367c0-0.342,0.039-0.677,0.118-1.006
			c0.074-0.328,0.158-0.656,0.248-0.98c0.089-0.326,0.17-0.65,0.244-0.976c0.073-0.325,0.107-0.654,0.107-0.987
			c0-0.393-0.058-0.734-0.179-1.02c-0.118-0.286-0.287-0.521-0.506-0.706c-0.218-0.183-0.479-0.318-0.783-0.404
			c-0.304-0.085-0.638-0.128-1.006-0.128c-0.581,0-1.04,0.099-1.372,0.296c-0.335,0.197-0.586,0.454-0.757,0.774
			c-0.172,0.321-0.28,0.687-0.328,1.099c-0.046,0.409-0.068,0.833-0.068,1.269c0,0.418,0.008,0.826,0.03,1.219
			c0.021,0.394,0.048,0.764,0.084,1.109c0.035,0.347,0.071,0.658,0.115,0.937c0.041,0.277,0.084,0.513,0.127,0.712
			c0.154,0.709,0.381,1.287,0.681,1.731c0.3,0.443,0.646,0.789,1.039,1.031c0.394,0.243,0.82,0.408,1.277,0.495
			c0.456,0.084,0.912,0.128,1.364,0.128c0.558,0,1.09-0.057,1.604-0.168c0.515-0.109,0.985-0.295,1.418-0.556
			c0.433-0.262,0.81-0.609,1.134-1.046c0.326-0.436,0.574-0.979,0.744-1.629c0.104-0.386,0.192-0.861,0.271-1.431
			c0.076-0.569,0.115-1.143,0.115-1.726C55.483,14.697,55.464,14.274,55.424,13.855z"/>
		<path fill="#FFC7C7" d="M68.726,17.651c-0.038-0.497-0.104-1.021-0.198-1.571c-0.095-0.551-0.22-1.105-0.38-1.66
			c-0.157-0.557-0.356-1.055-0.595-1.495c-0.239-0.44-0.529-0.801-0.867-1.077c-0.336-0.278-0.729-0.419-1.173-0.419
			c-0.366,0-0.679,0.075-0.93,0.218c-0.252,0.146-0.465,0.326-0.634,0.54c-0.172,0.214-0.312,0.449-0.42,0.707
			c-0.104,0.255-0.2,0.49-0.28,0.705c-0.081,0.214-0.156,0.393-0.225,0.539c-0.068,0.145-0.154,0.218-0.256,0.218
			c-0.103,0-0.179-0.074-0.225-0.218c-0.048-0.146-0.096-0.329-0.148-0.553c-0.05-0.221-0.116-0.459-0.198-0.71
			c-0.082-0.253-0.204-0.49-0.372-0.712c-0.166-0.222-0.383-0.407-0.654-0.551c-0.269-0.146-0.617-0.218-1.045-0.218
			c-0.246,0-0.482,0.029-0.706,0.089c-0.223,0.06-0.431,0.161-0.627,0.308c-0.333,0.229-0.625,0.512-0.873,0.846
			c-0.249,0.333-0.464,0.7-0.646,1.096c-0.185,0.397-0.344,0.818-0.476,1.257c-0.133,0.44-0.244,0.884-0.334,1.334
			c-0.089,0.449-0.169,0.889-0.236,1.321c-0.068,0.432-0.133,0.838-0.193,1.225c-0.034,0.222-0.072,0.455-0.115,0.699
			c-0.043,0.242-0.063,0.476-0.063,0.697c0,0.24,0.081,0.44,0.243,0.604c0.162,0.162,0.36,0.292,0.59,0.391
			c0.231,0.098,0.472,0.168,0.727,0.214c0.25,0.038,0.47,0.062,0.659,0.062c0.129,0,0.261-0.008,0.397-0.026
			c0.135-0.018,0.265-0.047,0.386-0.088c0.119-0.044,0.229-0.104,0.331-0.18c0.104-0.08,0.193-0.176,0.27-0.296
			c0.087-0.145,0.156-0.359,0.207-0.642c0.05-0.281,0.096-0.592,0.134-0.936s0.069-0.693,0.096-1.051
			c0.027-0.36,0.059-0.686,0.098-0.977c0.038-0.289,0.085-0.528,0.143-0.718c0.054-0.188,0.127-0.281,0.223-0.281
			c0.094,0,0.172,0.08,0.229,0.236c0.061,0.158,0.121,0.357,0.18,0.597c0.06,0.238,0.127,0.495,0.2,0.771
			c0.072,0.271,0.171,0.527,0.295,0.768s0.277,0.438,0.463,0.595c0.183,0.161,0.415,0.238,0.696,0.238
			c0.224,0,0.411-0.072,0.566-0.217c0.152-0.145,0.289-0.326,0.408-0.541c0.121-0.211,0.227-0.444,0.315-0.697
			c0.091-0.252,0.175-0.486,0.255-0.699c0.084-0.214,0.168-0.394,0.258-0.539c0.089-0.145,0.19-0.219,0.302-0.219
			c0.11,0,0.188,0.119,0.224,0.354c0.039,0.233,0.065,0.525,0.084,0.872c0.017,0.346,0.038,0.724,0.063,1.135
			c0.025,0.41,0.084,0.789,0.174,1.135c0.089,0.347,0.229,0.636,0.416,0.872c0.188,0.236,0.449,0.353,0.783,0.353
			c0.582,0,1.039-0.022,1.372-0.069c0.336-0.047,0.584-0.154,0.752-0.321c0.165-0.166,0.272-0.414,0.319-0.744
			c0.049-0.329,0.071-0.776,0.071-1.341C68.784,18.557,68.766,18.147,68.726,17.651z"/>
	</g>
	<circle clip-path="url(#SVGID_2_)" fill="#FFFFFF" cx="9.093" cy="13.064" r="0.31"/>
	<circle clip-path="url(#SVGID_2_)" fill="#FFFFFF" cx="46.079" cy="13.064" r="0.309"/>
	<path clip-path="url(#SVGID_2_)" fill="#FFFFFF" d="M0.074,18.062c0,0,3.894-5.32,17.78-0.259
		c13.885,5.061,13.041-3.115,17.713-6.813c4.673-3.699,3.764,10.252,14.665,8.694c10.899-1.558,12.653-15.378,24.397-2.66
		c11.745,12.718-2.467,6.813-2.467,6.813l-73.451-0.973L0.074,18.062z"/>
</g>
</svg>
